# xmcd
#
# Track frame offsets:
#	150
#	17823
#	40170
#	62394
#	80421
#	100695
#	126819
#	151656
#	168791
#	191053
#	208276
#	225615
#	250796
#
# Disc length: 3609 seconds
#
# Revision: 0
# Processed by: cddbd v1.5.1PL0 Copyright (c) Steve Scherf et al.
# Submitted via: audiograbber 1.83.01
#
DISCID=9b0e170d
DTITLE=Sister Monica Parker - You Can't Keep a Good Woman Down!
DYEAR=2005
DGENRE=Blues
TTITLE0=Can't Keep a Good Woman Down
TTITLE1=Cookin' with Grease
TTITLE2=Funny How Time Slips Away
TTITLE3=Show Me What You're Working With
TTITLE4=Put Your Money Where Your Mouth Is
TTITLE5=Leave the Door Open
TTITLE6=Put it in the Crock Pot
TTITLE7=Surrender to Love
TTITLE8=A Change Gonna Come
TTITLE9=The Truth
TTITLE10=Lip Service
TTITLE11=The Bigger They Are The Harder They Fall
TTITLE12=It's Good to be Alive
EXTD=
EXTT0=
EXTT1=
EXTT2=
EXTT3=
EXTT4=
EXTT5=
EXTT6=
EXTT7=
EXTT8=
EXTT9=
EXTT10=
EXTT11=
EXTT12=
PLAYORDER=
